<?xml version="1.0" encoding="UTF-8"?>
<!DOCTYPE svg PUBLIC "-//W3C//DTD SVG 1.1//EN" "http://www.w3.org/Graphics/SVG/1.1/DTD/svg11.dtd">
<svg xmlns="http://www.w3.org/2000/svg" xmlns:xlink="http://www.w3.org/1999/xlink" version="1.1" width="361px" height="361px" viewBox="-0.5 -0.5 361 361" style="background-color: rgb(255, 255, 255);"><defs/><g><rect x="0" y="0" width="120" height="120" fill="#00ff00" stroke="#000000" pointer-events="all"/><rect x="240" y="0" width="120" height="120" fill="#000000" stroke="#000000" pointer-events="all"/><rect x="120" y="0" width="120" height="120" fill="#00ff00" stroke="#000000" pointer-events="all"/><rect x="0" y="120" width="120" height="120" fill="#00ff00" stroke="#000000" pointer-events="all"/><rect x="120" y="120" width="120" height="120" fill="#000000" stroke="#000000" pointer-events="all"/><rect x="240" y="120" width="120" height="120" fill="#00ff00" stroke="#000000" pointer-events="all"/><rect x="0" y="240" width="120" height="120" fill="#000000" stroke="#000000" pointer-events="all"/><rect x="120" y="240" width="120" height="120" fill="#006600" stroke="#000000" pointer-events="all"/><rect x="240" y="240" width="120" height="120" fill="#000000" stroke="#000000" pointer-events="all"/><rect x="120" y="0" width="120" height="120" fill="#00aa00" stroke="#000000" pointer-events="all"/><rect x="0" y="0" width="120" height="120" fill="#00aa00" stroke="#000000" pointer-events="all"/><rect x="0" y="120" width="120" height="120" fill="#00aa00" stroke="#000000" pointer-events="all"/><rect x="240" y="120" width="120" height="120" fill="#006600" stroke="#000000" pointer-events="all"/><rect x="240" y="120" width="120" height="120" fill="#00aa00" stroke="#000000" pointer-events="all"/><rect x="120" y="240" width="120" height="120" fill="#00aa00" stroke="#000000" pointer-events="all"/><rect x="0" y="0" width="120" height="120" fill="#00aa00" stroke="#00aa00" pointer-events="all"/><rect x="120" y="0" width="120" height="120" fill="#00aa00" stroke="#00aa00" pointer-events="all"/><rect x="240" y="0" width="120" height="120" fill="#000000" stroke="#000000" pointer-events="all"/><rect x="240" y="120" width="120" height="120" fill="#00aa00" stroke="#000000" pointer-events="all"/><rect x="120" y="120" width="120" height="120" fill="#000000" stroke="#000000" pointer-events="all"/><rect x="0" y="120" width="120" height="120" fill="#00aa00" stroke="#00aa00" pointer-events="all"/><rect x="0" y="240" width="120" height="120" fill="#000000" stroke="#000000" pointer-events="all"/><rect x="120" y="240" width="120" height="120" fill="#00aa00" stroke="#000000" pointer-events="all"/><rect x="240" y="120" width="120" height="120" fill="#00aa00" stroke="#00aa00" pointer-events="all"/><rect x="120" y="240" width="120" height="120" fill="#00aa00" stroke="#00aa00" pointer-events="all"/></g></svg>